# xmcd CD database file
#
# Track frame offsets:
#	150
#	9441
#	30475
#	42628
#	68174
#	73634
#	96923
#	102650
#	106214
#	113463
#	134434
#	149076
#	162153
#	167415
#	183114
#	199935
#
# Disc length: 2899 seconds
#
# Revision: 0
# Processed by: cddbd v1.5.2PL0 Copyright (c) Steve Scherf et al.
# Submitted via: CDex 1.51
#
DISCID=dd0b5110
DTITLE=Hammerling - Lisi
DYEAR=2004
DGENRE=Jazz
TTITLE0=Maul and Trommel 1
TTITLE1=Luftmarsch
TTITLE2=Ärwins Erger
TTITLE3=Fliesentanz
TTITLE4=Innenbilder
TTITLE5=Fraunhofer 13
TTITLE6=Spind
TTITLE7=Außenbilder
TTITLE8=Speisesaal
TTITLE9=Firn
TTITLE10=Schneibn
TTITLE11=Maul and Trommel 2
TTITLE12=Lisi
TTITLE13=Trio
TTITLE14=Jahbonar
TTITLE15=Trüba
EXTD=YEAR: 2004
EXTT0=
EXTT1=
EXTT2=
EXTT3=
EXTT4=
EXTT5=
EXTT6=
EXTT7=
EXTT8=
EXTT9=
EXTT10=
EXTT11=
EXTT12=
EXTT13=
EXTT14=
EXTT15=
PLAYORDER=
